fd_5_states
version=1
nRows=19
nColumns=17
inDegrees=yes

# SIMM Motion File Header:
name fd_5_states
datacolumns 17
datarows 19
otherdata 1
range 0.485863 0.488466
endheader
time	/jointset/r_shoulder/r_shoulder_elev/value	/jointset/r_shoulder/r_shoulder_elev/speed	/jointset/r_elbow/r_elbow_flex/value	/jointset/r_elbow/r_elbow_flex/speed	/forceset/TRIlong/activation	/forceset/TRIlong/fiber_length	/forceset/TRIlat/activation	/forceset/TRIlat/fiber_length	/forceset/TRImed/activation	/forceset/TRImed/fiber_length	/forceset/BIClong/activation	/forceset/BIClong/fiber_length	/forceset/BICshort/activation	/forceset/BICshort/fiber_length	/forceset/BRA/activation	/forceset/BRA/fiber_length
      0.485863	      5.938522	    437.914248	    187.692599	     39.466718	      0.024522	      0.182575	      0.377974	      0.112403	      0.370667	      0.107472	      0.950234	      0.053757	      0.614375	      0.054191	      0.595358	      0.038302
      0.486007	      6.001845	    437.725784	    187.698289	     39.212823	      0.024513	      0.182618	      0.377317	      0.112403	      0.370030	      0.107472	      0.950607	      0.053737	      0.611332	      0.054193	      0.592472	      0.038303
      0.486152	      6.065142	    437.535786	    187.703943	     38.957702	      0.024504	      0.182655	      0.376664	      0.112403	      0.369396	      0.107472	      0.950976	      0.053717	      0.608315	      0.054195	      0.589609	      0.038304
      0.486297	      6.128410	    437.344195	    187.709559	     38.701415	      0.024495	      0.182696	      0.376014	      0.112404	      0.368765	      0.107473	      0.951343	      0.053696	      0.605323	      0.054197	      0.586769	      0.038305
      0.486441	      6.191651	    437.150052	    187.715138	     38.444375	      0.024487	      0.182730	      0.375367	      0.112404	      0.368137	      0.107473	      0.951707	      0.053676	      0.602355	      0.054199	      0.583952	      0.038307
      0.486586	      6.254864	    436.954714	    187.720680	     38.186082	      0.024478	      0.182774	      0.374723	      0.112404	      0.367512	      0.107473	      0.952068	      0.053656	      0.599412	      0.054201	      0.581157	      0.038308
      0.486731	      6.318048	    436.756197	    187.726184	     37.927354	      0.024469	      0.182804	      0.374081	      0.112404	      0.366889	      0.107473	      0.952426	      0.053635	      0.596492	      0.054203	      0.578385	      0.038309
      0.486875	      6.381204	    436.555353	    187.731651	     37.667889	      0.024461	      0.182846	      0.373443	      0.112404	      0.366270	      0.107473	      0.952781	      0.053615	      0.593597	      0.054205	      0.575635	      0.038311
      0.487020	      6.444330	    436.354307	    187.737080	     37.406887	      0.024452	      0.182889	      0.372808	      0.112405	      0.365654	      0.107473	      0.953134	      0.053595	      0.590725	      0.054208	      0.572906	      0.038312
      0.487164	      6.507427	    436.150008	    187.742472	     37.145586	      0.024443	      0.182919	      0.372176	      0.112405	      0.365040	      0.107473	      0.953484	      0.053574	      0.587876	      0.054210	      0.570199	      0.038313
      0.487309	      6.570494	    435.943502	    187.747826	     36.883609	      0.024435	      0.182962	      0.371547	      0.112405	      0.364429	      0.107473	      0.953831	      0.053554	      0.585050	      0.054213	      0.567514	      0.038315
      0.487454	      6.633532	    435.736721	    187.753141	     36.620231	      0.024426	      0.183004	      0.370921	      0.112405	      0.363822	      0.107473	      0.954176	      0.053534	      0.582247	      0.054216	      0.564849	      0.038316
      0.487598	      6.696539	    435.526691	    187.758419	     36.356729	      0.024418	      0.183035	      0.370298	      0.112405	      0.363217	      0.107473	      0.954517	      0.053513	      0.579466	      0.054219	      0.562205	      0.038317
      0.487743	      6.759516	    435.314916	    187.763658	     36.092490	      0.024409	      0.183078	      0.369678	      0.112406	      0.362614	      0.107474	      0.954857	      0.053493	      0.576707	      0.054222	      0.559582	      0.038319
      0.487888	      6.822462	    435.101982	    187.768860	     35.827304	      0.024400	      0.183116	      0.369061	      0.112406	      0.362015	      0.107474	      0.955193	      0.053473	      0.573970	      0.054225	      0.556978	      0.038320
      0.488032	      6.885377	    434.887216	    187.774022	     35.561474	      0.024392	      0.183155	      0.368446	      0.112406	      0.361418	      0.107474	      0.955527	      0.053452	      0.571255	      0.054228	      0.554395	      0.038322
      0.488177	      6.948261	    434.670423	    187.779147	     35.295114	      0.024383	      0.183193	      0.367835	      0.112406	      0.360824	      0.107474	      0.955859	      0.053432	      0.568561	      0.054231	      0.551832	      0.038323
      0.488322	      7.011113	    434.451978	    187.784232	     35.028111	      0.024375	      0.183232	      0.367226	      0.112406	      0.360233	      0.107474	      0.956188	      0.053412	      0.565888	      0.054235	      0.549289	      0.038324
      0.488466	      7.073934	    434.231142	    187.789279	     34.760794	      0.024366	      0.183268	      0.366620	      0.112406	      0.359645	      0.107474	      0.956514	      0.053391	      0.563236	      0.054238	      0.546765	      0.038326
